<?xml version="1.0" encoding="utf-8"?>
<!-- Generator: Adobe Illustrator 27.1.1, SVG Export Plug-In . SVG Version: 6.00 Build 0)  -->
<svg version="1.1" id="Layer_1" xmlns="http://www.w3.org/2000/svg" xmlns:xlink="http://www.w3.org/1999/xlink" x="0px" y="0px"
	 viewBox="0 0 456.5 600.8" style="enable-background:new 0 0 456.5 600.8;" xml:space="preserve">
<style type="text/css">
	.st0{fill:#A0616A;}
	.st1{fill:#2F2E41;}
	.st2{fill:#F98226;}
</style>
<polygon class="st0" points="227.8,207.9 236,157.2 181.2,134.9 173.1,212 "/>
<g>
	<circle class="st0" cx="214" cy="117.7" r="55.8"/>
	<path class="st1" d="M209.6,42.6c1.6,0.9,3.8-0.5,4.3-2.3c0.5-1.8-0.1-3.7-0.7-5.5c-1-3-2-5.9-3-8.9c-2.1-6.3-4.4-12.9-9-17.7
		c-7-7.3-18.1-9.1-28.1-7.8c-12.8,1.7-25.5,8.7-31.5,20.2s-3.4,27.5,7.4,34.7c-15.4,17.6-20.7,37.2-19.9,60.6s26.3,44.9,42.9,61.3
		c3.7-2.2,7.1-12.8,5-16.6c-2-3.8,0.9-8.3-1.6-11.8c-2.5-3.5-4.6,2.1-2.1-1.4c1.6-2.2-4.7-7.3-2.3-8.6c11.6-6.4,15.4-20.8,22.7-31.9
		c8.8-13.3,23.8-22.4,39.7-23.9c8.8-0.8,18,0.7,25.2,5.8c7.2,5.1,11.8,14.2,10.2,22.8c4.3-4.4,6.5-10.8,5.6-16.9s-4.6-11.7-9.9-14.8
		c3.2-10.7,0.5-22.9-7-31.2c-7.5-8.2-37.8-6.8-48.8-4.7"/>
	<path class="st1" d="M207.9,83.3c-14.5,1.6-24.9,14.1-33.7,25.7c-5.1,6.7-10.4,14-10.3,22.4c0.1,8.5,5.8,15.8,8.5,23.8
		c4.4,13.1,0.1,28.8-10.4,37.8c10.4,2,21.7-5.8,23.5-16.3c2.1-12.2-7.1-23.9-6-36.2c1-10.8,9.5-19.2,16.8-27.3s14.1-18.8,10.7-29.2"
		/>
</g>
<path class="st0" d="M210.6,594.8c0,0-121,12-130-2s122.8-28,122.8-28L210.6,594.8z"/>
<path class="st0" d="M133.5,370.5l-2.5,13.3c6.8,10,7.5,20.7,3.5,31.7l138,1c-1.5-15-3.1-31,2.6-45.7L133.5,370.5z"/>
<path class="st0" d="M359.5,469.2l-50-40c-6.6-5.3-11-13.2-11.8-21.7l-7.7-76.3l45.9-15.3l11.1,75.5l27.6,62.8L359.5,469.2z"/>
<polygon class="st2" points="168,203 235,200 306,233.8 277,372 130,383 110,230 "/>
<path class="st1" d="M275.1,403.8c10.1,13.3,14.3,45.2,18.6,77c0,0-186-1-187-1s28.4-67,28.4-67L275.1,403.8L275.1,403.8z"/>
<path class="st1" d="M281.1,472.4l12.5,8.5c0,0,177-12,162,44c-15,56-62,65-62,65l-190,11l-2-31c0,0-183,41-200-43s105-47,105-47
	L281.1,472.4L281.1,472.4L281.1,472.4z"/>
<path class="st0" d="M206.4,538.8c0,0,4.2-22,34.2-13s47,21,47,21l-72,18L206.4,538.8z"/>
<path class="st2" d="M281.5,231.5c0,0,34-12,47,27s10,71,10,71l-50,16L281.5,231.5L281.5,231.5L281.5,231.5z"/>
<path class="st0" d="M48.3,475.3L37.4,456L61,397.4l11.1-75.5l45.9,15.3l-7.8,77.2c-0.8,7.9-4.8,15.3-11,20.2L48.3,475.3z"/>
<path class="st2" d="M126.5,231.5c0,0-34-12-47,27s-10,71-10,71l50,16L126.5,231.5L126.5,231.5z"/>
<ellipse class="st0" cx="374" cy="442.5" rx="24" ry="35.5"/>
<ellipse class="st0" cx="37" cy="448.5" rx="24" ry="35.5"/>
<polyline class="st1" points="128.6,507.8 215.6,532.8 232.6,562.8 200.1,569.8 "/>
</svg>
